<svg width="42" height="43" viewBox="0 0 42 43" fill="none" xmlns="http://www.w3.org/2000/svg">
<g clip-path="url(#clip0)">
<path d="M4.70773 29.8242C5.41441 30.2858 6.17915 30.6566 6.97245 30.9256L6.9738 37.109C6.9743 39.4407 8.82758 41.3378 11.1052 41.3378H28.704C30.9821 41.3378 32.8354 39.4403 32.8354 37.108V33.2945C35.09 32.6996 37.1431 31.4486 38.7446 29.6699C40.7836 27.4052 41.9267 24.4607 41.9637 21.3788C41.9839 19.6979 41.6812 18.0613 41.064 16.5149C40.4686 15.0229 39.6074 13.6794 38.5042 12.5219C37.401 11.3643 36.1103 10.4498 34.668 9.80377C33.1731 9.13418 31.5827 8.78425 29.9408 8.76358C29.8902 8.763 29.8401 8.76264 29.79 8.76264C29.725 8.76264 29.6599 8.76315 29.5948 8.76424C29.2853 8.10024 28.918 7.46426 28.496 6.86268C27.7693 5.82664 26.8954 4.91355 25.8985 4.14857C24.888 3.37327 23.7723 2.7666 22.5824 2.3456C21.3522 1.91033 20.0641 1.68124 18.7533 1.66479C18.7029 1.66414 18.6522 1.66385 18.6017 1.66385H18.6016C15.5694 1.66385 12.6636 2.81353 10.4192 4.90118C8.54264 6.6469 7.25789 8.92546 6.7177 11.4274C5.59455 11.8208 4.54913 12.4184 3.64128 13.1915C2.44273 14.2121 1.4801 15.5395 0.857406 17.0302C-0.479496 20.2305 -0.171455 23.8706 1.68133 26.7675C2.45737 27.9808 3.50378 29.0377 4.70773 29.8242ZM8.67424 14.1158C9.12731 14.03 9.47479 13.6518 9.52076 13.1824C9.98464 8.45308 13.8844 4.78049 18.6015 4.78049C18.6396 4.78049 18.6778 4.7807 18.7159 4.78121C22.7379 4.83178 26.12 7.53781 27.2922 11.2509C27.4335 11.6986 27.8407 11.9924 28.2888 11.9924C28.3401 11.9924 28.3919 11.9885 28.444 11.9806C28.8834 11.9139 29.3328 11.8792 29.7898 11.8792C29.8275 11.8792 29.8653 11.8794 29.9032 11.8799C34.9447 11.9433 38.9815 16.1789 38.9197 21.3406C38.862 26.1435 35.2758 30.0551 30.7157 30.5244C30.1892 30.5786 29.7911 31.038 29.7911 31.5798V37.1081C29.7911 37.7228 29.3043 38.2212 28.7039 38.2212H26.8166V31.4742C26.8166 30.6135 26.1352 29.9158 25.2946 29.9158C24.4539 29.9158 23.7725 30.6135 23.7725 31.4742V38.2212H21.7418V31.4742C21.7418 30.6135 21.0603 29.9158 20.2197 29.9158C19.379 29.9158 18.6976 30.6135 18.6976 31.4742V38.2212H16.2623V34.4572C16.2623 33.5966 15.5808 32.8989 14.7402 32.8989C13.8996 32.8989 13.2181 33.5966 13.2181 34.4572V38.2212H11.105C10.5047 38.2212 10.018 37.723 10.0178 37.1084L10.0162 29.3054C10.016 28.7793 9.64 28.3285 9.13101 28.2557C7.13773 27.9707 5.32936 26.7822 4.22808 25.0602C1.53495 20.8494 3.80663 15.0372 8.67424 14.1158Z" fill="white"/>
<path d="M28.7039 41.3733H11.105C8.80791 41.3733 6.93863 39.4599 6.93814 37.1081L6.93679 30.9509C6.14455 30.68 5.38827 30.3111 4.68848 29.854C3.48048 29.0647 2.43023 28.0041 1.6515 26.7866C-0.20776 23.8795 -0.516937 20.2266 0.824513 17.0151C1.4494 15.5191 2.41552 14.1869 3.61826 13.1626C4.52533 12.3902 5.55775 11.7968 6.68709 11.3987C7.23594 8.87564 8.51785 6.61965 10.3951 4.87334C12.6458 2.77973 15.5604 1.62656 18.6012 1.62656C18.6014 1.62656 18.6012 1.62656 18.6014 1.62656C18.6521 1.62656 18.703 1.62685 18.7535 1.6275C20.0679 1.64402 21.3599 1.87376 22.5937 2.31034C23.7871 2.73266 24.906 3.341 25.9195 4.11863C26.9193 4.88586 27.7958 5.80164 28.5245 6.84059C28.9415 7.43504 29.3089 8.0695 29.6167 8.72658C29.7247 8.72505 29.832 8.72498 29.9409 8.72629C31.5877 8.74702 33.1827 9.09804 34.6819 9.76953C36.1283 10.4174 37.4228 11.3346 38.5294 12.4956C39.6357 13.6565 40.4996 15.0039 41.0967 16.5003C41.7157 18.0512 42.0193 19.6925 41.999 21.3784C41.962 24.4693 40.8155 27.4225 38.7705 29.6937C37.1764 31.4641 35.1369 32.7183 32.8707 33.3217V37.1071C32.8707 39.4596 31.0015 41.3733 28.7039 41.3733ZM18.6015 1.69938C15.5781 1.69938 12.6806 2.84571 10.4429 4.92725C8.57171 6.66795 7.29549 8.91806 6.75217 11.4344L6.74784 11.4543L6.72894 11.4609C5.60052 11.8561 4.56917 12.4475 3.66374 13.2185C2.46953 14.2354 1.51037 15.5582 0.889816 17.0436C-0.442183 20.2328 -0.13528 23.8602 1.71097 26.7468C2.48424 27.9557 3.5271 29.009 4.72671 29.7926C5.42863 30.2512 6.1879 30.6204 6.98347 30.8902L7.00784 30.8984L7.00919 37.108C7.00969 39.4197 8.84706 41.3004 11.105 41.3004H28.7039C30.9623 41.3004 32.7997 39.4193 32.7997 37.1071V33.2654L32.8264 33.2583C35.0899 32.6611 37.1273 31.4113 38.7184 29.6443C40.7513 27.3862 41.8912 24.4502 41.928 21.3774C41.9481 19.7013 41.6464 18.0696 41.031 16.5277C40.4374 15.0399 39.5786 13.7004 38.4786 12.5463C37.3786 11.392 36.0915 10.4802 34.6536 9.8361C33.1631 9.16854 31.5774 8.81955 29.9402 8.79896C29.8243 8.79758 29.7102 8.79773 29.5951 8.79962L29.5724 8.79998L29.5625 8.77889C29.2545 8.11809 28.886 7.48022 28.4669 6.88286C27.7425 5.84995 26.8711 4.93947 25.877 4.17668C24.8694 3.40364 23.7571 2.79879 22.5707 2.37902C21.344 1.94499 20.0595 1.71662 18.7527 1.70018C18.7024 1.69967 18.6518 1.69938 18.6015 1.69938ZM28.7039 38.2566H26.7811V31.4732C26.7811 30.634 26.1142 29.9513 25.2946 29.9513C24.4749 29.9513 23.808 30.634 23.808 31.4732V38.2566H21.7062V31.4732C21.7062 30.634 21.0393 29.9513 20.2197 29.9513C19.4 29.9513 18.7331 30.634 18.7331 31.4732V38.2566H16.2267V34.4563C16.2267 33.6171 15.5599 32.9343 14.7402 32.9343C13.9205 32.9343 13.2536 33.6171 13.2536 34.4563V38.2566H11.105C10.4861 38.2566 9.98244 37.7411 9.9823 37.1075L9.98066 29.3044C9.98052 28.7962 9.61315 28.3604 9.12611 28.2908C7.14556 28.0076 5.30343 26.807 4.19839 25.0792C2.89865 23.047 2.68377 20.4904 3.62366 18.2405C4.54793 16.0276 6.38651 14.5108 8.66778 14.079C9.10529 13.9962 9.44154 13.6256 9.48538 13.1778C9.71142 10.8737 10.7615 8.74367 12.4424 7.18012C14.1318 5.60856 16.3191 4.74312 18.6014 4.74312C18.6397 4.74312 18.678 4.74334 18.7162 4.74385C22.6552 4.79339 26.1152 7.40346 27.3259 11.2387C27.4612 11.6672 27.8482 11.955 28.2888 11.955C28.3388 11.955 28.3893 11.9512 28.4387 11.9437C28.9205 11.8705 29.4109 11.8362 29.9036 11.8426C34.9565 11.9061 39.0171 16.1667 38.9551 21.3401C38.8978 26.1188 35.3571 30.0823 30.7192 30.5596C30.2104 30.6121 29.8266 31.0502 29.8266 31.5789V37.1072C29.8266 37.741 29.323 38.2566 28.7039 38.2566ZM26.8522 38.1839H28.7039C29.2837 38.1839 29.7556 37.7009 29.7556 37.1072V31.5789C29.7556 31.0127 30.1668 30.5435 30.7122 30.4873C35.3141 30.0136 38.8273 26.0809 38.8842 21.3392C38.9456 16.2059 34.9166 11.9785 29.9027 11.9155C29.4153 11.9091 28.9272 11.9431 28.4492 12.0157C28.3963 12.0238 28.3423 12.0279 28.2888 12.0279C27.8172 12.0279 27.4031 11.7198 27.2584 11.2611C26.057 7.45563 22.6238 4.86585 18.7154 4.81667C18.6774 4.81623 18.6394 4.81594 18.6015 4.81594C16.3368 4.81594 14.1665 5.67469 12.4901 7.23403C10.8223 8.78543 9.78028 10.8988 9.55602 13.185C9.50898 13.6649 9.14899 14.0619 8.68057 14.1506C6.42303 14.5779 4.60364 16.079 3.68883 18.2691C2.75838 20.4966 2.97099 23.0275 4.25772 25.0394C5.35168 26.7498 7.17526 27.9384 9.13585 28.2187C9.65777 28.2933 10.0515 28.76 10.0517 29.3044L10.0533 37.1074C10.0534 37.7009 10.5252 38.1838 11.105 38.1838H13.1825V34.4562C13.1825 33.5769 13.8812 32.8615 14.7401 32.8615C15.599 32.8615 16.2977 33.5769 16.2977 34.4562V38.1838H18.662V31.4731C18.662 30.5938 19.3607 29.8785 20.2196 29.8785C21.0785 29.8785 21.7772 30.5938 21.7772 31.4731V38.1838H23.7369V31.4731C23.7369 30.5938 24.4356 29.8785 25.2945 29.8785C26.1534 29.8785 26.8521 30.5938 26.8521 31.4731V38.1839H26.8522Z" fill="white"/>
</g>
<defs>
<clipPath id="clip0">
<rect width="42" height="43" fill="white"/>
</clipPath>
</defs>
</svg>
