<svg width="207" height="34" viewBox="0 0 207 34" fill="none" xmlns="http://www.w3.org/2000/svg">
<path d="M16.952 33.192C14.776 33.192 12.712 32.776 10.76 31.944C8.808 31.112 7.096 29.944 5.624 28.44C4.152 26.968 3 25.256 2.168 23.304C1.336 21.352 0.92 19.272 0.92 17.064C0.92 14.856 1.32 12.776 2.12 10.824C2.952 8.872 4.12 7.144 5.624 5.64C7.096 4.168 8.808 3.016 10.76 2.184C12.712 1.352 14.776 0.935998 16.952 0.935998C19.352 0.935998 21.624 1.448 23.768 2.472C25.912 3.496 27.832 5.016 29.528 7.032L26.264 9.816C23.64 6.808 20.536 5.304 16.952 5.304C15.384 5.304 13.88 5.608 12.44 6.216C11.032 6.824 9.784 7.672 8.696 8.76C7.608 9.848 6.76 11.112 6.152 12.552C5.544 13.96 5.24 15.464 5.24 17.064C5.24 18.664 5.544 20.184 6.152 21.624C6.76 23.032 7.608 24.28 8.696 25.368C9.784 26.456 11.032 27.304 12.44 27.912C13.88 28.52 15.384 28.824 16.952 28.824C20.536 28.824 23.64 27.32 26.264 24.312L29.528 27.096C27.8 29.112 25.864 30.632 23.72 31.656C21.608 32.68 19.352 33.192 16.952 33.192ZM44.564 33.24C42.932 33.24 41.38 32.92 39.908 32.28C38.436 31.64 37.14 30.76 36.02 29.64C34.9 28.52 34.02 27.224 33.38 25.752C32.74 24.28 32.42 22.728 32.42 21.096C32.42 19.432 32.74 17.848 33.38 16.344C34.02 14.84 34.9 13.528 36.02 12.408C37.14 11.288 38.436 10.424 39.908 9.816C41.38 9.176 42.932 8.856 44.564 8.856C46.228 8.856 47.812 9.176 49.316 9.816C50.82 10.424 52.132 11.288 53.252 12.408C54.372 13.528 55.236 14.84 55.844 16.344C56.484 17.848 56.804 19.432 56.804 21.096C56.804 22.728 56.484 24.28 55.844 25.752C55.236 27.224 54.372 28.52 53.252 29.64C52.132 30.76 50.82 31.64 49.316 32.28C47.812 32.92 46.228 33.24 44.564 33.24ZM44.564 13.128C42.42 13.128 40.58 13.896 39.044 15.432C38.308 16.168 37.732 17.032 37.316 18.024C36.9 19.016 36.692 20.04 36.692 21.096C36.692 22.152 36.9 23.16 37.316 24.12C37.732 25.08 38.308 25.928 39.044 26.664C39.78 27.4 40.612 27.976 41.54 28.392C42.5 28.808 43.508 29.016 44.564 29.016C45.62 29.016 46.644 28.808 47.636 28.392C48.628 27.976 49.476 27.4 50.18 26.664C50.884 25.928 51.444 25.08 51.86 24.12C52.276 23.16 52.484 22.152 52.484 21.096C52.484 20.04 52.276 19.016 51.86 18.024C51.444 17.032 50.884 16.168 50.18 15.432C49.476 14.696 48.628 14.136 47.636 13.752C46.676 13.336 45.652 13.128 44.564 13.128ZM71.8453 33.24C70.2133 33.24 68.6613 32.92 67.1893 32.28C65.7173 31.64 64.4213 30.76 63.3013 29.64C62.1813 28.52 61.3013 27.224 60.6613 25.752C60.0213 24.28 59.7013 22.728 59.7013 21.096C59.7013 19.432 60.0213 17.848 60.6613 16.344C61.3013 14.84 62.1813 13.528 63.3013 12.408C64.4213 11.288 65.7173 10.424 67.1893 9.816C68.6613 9.176 70.2133 8.856 71.8453 8.856C73.5093 8.856 75.0933 9.176 76.5973 9.816C78.1013 10.424 79.4133 11.288 80.5333 12.408C81.6533 13.528 82.5173 14.84 83.1252 16.344C83.7653 17.848 84.0853 19.432 84.0853 21.096C84.0853 22.728 83.7653 24.28 83.1252 25.752C82.5173 27.224 81.6533 28.52 80.5333 29.64C79.4133 30.76 78.1013 31.64 76.5973 32.28C75.0933 32.92 73.5093 33.24 71.8453 33.24ZM71.8453 13.128C69.7013 13.128 67.8613 13.896 66.3253 15.432C65.5893 16.168 65.0133 17.032 64.5973 18.024C64.1813 19.016 63.9733 20.04 63.9733 21.096C63.9733 22.152 64.1813 23.16 64.5973 24.12C65.0133 25.08 65.5893 25.928 66.3253 26.664C67.0613 27.4 67.8933 27.976 68.8213 28.392C69.7813 28.808 70.7893 29.016 71.8453 29.016C72.9013 29.016 73.9253 28.808 74.9173 28.392C75.9093 27.976 76.7573 27.4 77.4613 26.664C78.1653 25.928 78.7253 25.08 79.1413 24.12C79.5573 23.16 79.7653 22.152 79.7653 21.096C79.7653 20.04 79.5573 19.016 79.1413 18.024C78.7253 17.032 78.1653 16.168 77.4613 15.432C76.7573 14.696 75.9093 14.136 74.9173 13.752C73.9573 13.336 72.9333 13.128 71.8453 13.128ZM99.92 33L92.624 24.12V33H88.4V1.08H92.624V14.856L99.152 8.712H105.44L94.064 19.272L105.488 33H99.92ZM119.182 1.032C120.974 1.064 122.542 1.48 123.886 2.28C125.23 3.08 126.254 4.152 126.958 5.496C127.694 6.84 128.062 8.36 128.062 10.056C128.062 11.304 127.822 12.488 127.342 13.608C126.894 14.696 126.27 15.672 125.47 16.536C126.622 17.4 127.518 18.472 128.158 19.752C128.83 21.032 129.166 22.44 129.166 23.976C129.166 25.608 128.766 27.112 127.966 28.488C127.166 29.864 126.094 30.968 124.75 31.8C123.406 32.6 121.918 33 120.286 33H109.822V1.032H119.182ZM114.046 5.352V14.856H119.182C120.494 14.856 121.598 14.392 122.494 13.464C123.39 12.536 123.838 11.4 123.838 10.056C123.838 8.712 123.39 7.592 122.494 6.696C121.63 5.8 120.526 5.352 119.182 5.352H114.046ZM114.046 19.176V28.68H120.286C121.598 28.68 122.702 28.232 123.598 27.336C124.494 26.408 124.942 25.288 124.942 23.976C124.942 22.632 124.494 21.496 123.598 20.568C122.702 19.64 121.598 19.176 120.286 19.176H114.046ZM145.158 33.24C143.526 33.24 141.974 32.92 140.502 32.28C139.03 31.64 137.734 30.76 136.614 29.64C135.494 28.52 134.614 27.224 133.974 25.752C133.334 24.28 133.014 22.728 133.014 21.096C133.014 19.432 133.334 17.848 133.974 16.344C134.614 14.84 135.494 13.528 136.614 12.408C137.734 11.288 139.03 10.424 140.502 9.816C141.974 9.176 143.526 8.856 145.158 8.856C146.822 8.856 148.406 9.176 149.91 9.816C151.414 10.424 152.726 11.288 153.846 12.408C154.966 13.528 155.83 14.84 156.438 16.344C157.078 17.848 157.398 19.432 157.398 21.096C157.398 22.728 157.078 24.28 156.438 25.752C155.83 27.224 154.966 28.52 153.846 29.64C152.726 30.76 151.414 31.64 149.91 32.28C148.406 32.92 146.822 33.24 145.158 33.24ZM145.158 13.128C143.014 13.128 141.174 13.896 139.638 15.432C138.902 16.168 138.326 17.032 137.91 18.024C137.494 19.016 137.286 20.04 137.286 21.096C137.286 22.152 137.494 23.16 137.91 24.12C138.326 25.08 138.902 25.928 139.638 26.664C140.374 27.4 141.206 27.976 142.134 28.392C143.094 28.808 144.102 29.016 145.158 29.016C146.214 29.016 147.238 28.808 148.23 28.392C149.222 27.976 150.07 27.4 150.774 26.664C151.478 25.928 152.038 25.08 152.454 24.12C152.87 23.16 153.078 22.152 153.078 21.096C153.078 20.04 152.87 19.016 152.454 18.024C152.038 17.032 151.478 16.168 150.774 15.432C150.07 14.696 149.222 14.136 148.23 13.752C147.27 13.336 146.246 13.128 145.158 13.128ZM172.439 33.24C170.807 33.24 169.255 32.92 167.783 32.28C166.311 31.64 165.015 30.76 163.895 29.64C162.775 28.52 161.895 27.224 161.255 25.752C160.615 24.28 160.295 22.728 160.295 21.096C160.295 19.432 160.615 17.848 161.255 16.344C161.895 14.84 162.775 13.528 163.895 12.408C165.015 11.288 166.311 10.424 167.783 9.816C169.255 9.176 170.807 8.856 172.439 8.856C174.103 8.856 175.687 9.176 177.191 9.816C178.695 10.424 180.007 11.288 181.127 12.408C182.247 13.528 183.111 14.84 183.719 16.344C184.359 17.848 184.679 19.432 184.679 21.096C184.679 22.728 184.359 24.28 183.719 25.752C183.111 27.224 182.247 28.52 181.127 29.64C180.007 30.76 178.695 31.64 177.191 32.28C175.687 32.92 174.103 33.24 172.439 33.24ZM172.439 13.128C170.295 13.128 168.455 13.896 166.919 15.432C166.183 16.168 165.607 17.032 165.191 18.024C164.775 19.016 164.567 20.04 164.567 21.096C164.567 22.152 164.775 23.16 165.191 24.12C165.607 25.08 166.183 25.928 166.919 26.664C167.655 27.4 168.487 27.976 169.415 28.392C170.375 28.808 171.383 29.016 172.439 29.016C173.495 29.016 174.519 28.808 175.511 28.392C176.503 27.976 177.351 27.4 178.055 26.664C178.759 25.928 179.319 25.08 179.735 24.12C180.151 23.16 180.359 22.152 180.359 21.096C180.359 20.04 180.151 19.016 179.735 18.024C179.319 17.032 178.759 16.168 178.055 15.432C177.351 14.696 176.503 14.136 175.511 13.752C174.551 13.336 173.527 13.128 172.439 13.128ZM200.514 33L193.218 24.12V33H188.994V1.08H193.218V14.856L199.746 8.712H206.034L194.658 19.272L206.082 33H200.514Z" fill="white"/>
</svg>
