<svg width="252" height="48" viewBox="0 0 252 48" fill="none" xmlns="http://www.w3.org/2000/svg">
<rect y="3" width="252" height="41" rx="3" fill="white"/>
<path d="M82.2139 27.4365C82.2139 26.999 82.0589 26.6618 81.749 26.4248C81.4437 26.1878 80.89 25.9486 80.0879 25.707C79.2858 25.4655 78.6478 25.1966 78.1738 24.9004C77.2669 24.3307 76.8135 23.5879 76.8135 22.6719C76.8135 21.8698 77.1393 21.209 77.791 20.6895C78.4473 20.1699 79.2972 19.9102 80.3408 19.9102C81.0335 19.9102 81.651 20.0378 82.1934 20.293C82.7357 20.5482 83.1618 20.9128 83.4717 21.3867C83.7816 21.8561 83.9365 22.3779 83.9365 22.9521H82.2139C82.2139 22.4326 82.0498 22.027 81.7217 21.7354C81.3981 21.4391 80.9333 21.291 80.3271 21.291C79.762 21.291 79.3223 21.4118 79.0078 21.6533C78.6979 21.8949 78.543 22.2321 78.543 22.665C78.543 23.0296 78.7116 23.335 79.0488 23.5811C79.3861 23.8226 79.9421 24.0596 80.7168 24.292C81.4915 24.5199 82.1136 24.7819 82.583 25.0781C83.0524 25.3698 83.3965 25.707 83.6152 26.0898C83.834 26.4681 83.9434 26.9124 83.9434 27.4229C83.9434 28.2523 83.6243 28.9131 82.9863 29.4053C82.3529 29.8929 81.4915 30.1367 80.4023 30.1367C79.6823 30.1367 79.0192 30.0046 78.4131 29.7402C77.8115 29.4714 77.3421 29.1022 77.0049 28.6328C76.6722 28.1634 76.5059 27.6165 76.5059 26.9922H78.2354C78.2354 27.5573 78.4222 27.9948 78.7959 28.3047C79.1696 28.6146 79.7051 28.7695 80.4023 28.7695C81.0039 28.7695 81.4551 28.6488 81.7559 28.4072C82.0612 28.1611 82.2139 27.8376 82.2139 27.4365ZM87.0674 30H85.4062V22.6035H87.0674V30ZM85.3037 20.6826C85.3037 20.4274 85.3835 20.2155 85.543 20.0469C85.707 19.8783 85.9395 19.7939 86.2402 19.7939C86.541 19.7939 86.7734 19.8783 86.9375 20.0469C87.1016 20.2155 87.1836 20.4274 87.1836 20.6826C87.1836 20.9333 87.1016 21.1429 86.9375 21.3115C86.7734 21.4756 86.541 21.5576 86.2402 21.5576C85.9395 21.5576 85.707 21.4756 85.543 21.3115C85.3835 21.1429 85.3037 20.9333 85.3037 20.6826ZM88.5918 26.2471C88.5918 25.0986 88.8607 24.1826 89.3984 23.499C89.9408 22.8109 90.6585 22.4668 91.5518 22.4668C92.3949 22.4668 93.0579 22.7607 93.541 23.3486L93.6162 22.6035H95.1133V29.7744C95.1133 30.7451 94.8102 31.5107 94.2041 32.0713C93.6025 32.6318 92.7891 32.9121 91.7637 32.9121C91.2214 32.9121 90.6904 32.7982 90.1709 32.5703C89.6559 32.347 89.264 32.0531 88.9951 31.6885L89.7812 30.6904C90.2917 31.2965 90.9206 31.5996 91.668 31.5996C92.2194 31.5996 92.6546 31.4492 92.9736 31.1484C93.2926 30.8522 93.4521 30.4147 93.4521 29.8359V29.3369C92.9736 29.8701 92.3356 30.1367 91.5381 30.1367C90.6722 30.1367 89.9635 29.7926 89.4121 29.1045C88.8652 28.4163 88.5918 27.4639 88.5918 26.2471ZM90.2461 26.3906C90.2461 27.1335 90.3965 27.7191 90.6973 28.1475C91.0026 28.5713 91.4242 28.7832 91.9619 28.7832C92.6318 28.7832 93.1286 28.4961 93.4521 27.9219V24.668C93.1377 24.1074 92.6455 23.8271 91.9756 23.8271C91.4287 23.8271 91.0026 24.0436 90.6973 24.4766C90.3965 24.9095 90.2461 25.5475 90.2461 26.3906ZM98.3672 22.6035L98.415 23.458C98.9619 22.7972 99.6797 22.4668 100.568 22.4668C102.109 22.4668 102.893 23.3486 102.92 25.1123V30H101.259V25.208C101.259 24.7386 101.156 24.3923 100.951 24.1689C100.751 23.9411 100.42 23.8271 99.96 23.8271C99.29 23.8271 98.791 24.1302 98.4629 24.7363V30H96.8018V22.6035H98.3672ZM109.872 30H108.211V22.6035H109.872V30ZM108.108 20.6826C108.108 20.4274 108.188 20.2155 108.348 20.0469C108.512 19.8783 108.744 19.7939 109.045 19.7939C109.346 19.7939 109.578 19.8783 109.742 20.0469C109.906 20.2155 109.988 20.4274 109.988 20.6826C109.988 20.9333 109.906 21.1429 109.742 21.3115C109.578 21.4756 109.346 21.5576 109.045 21.5576C108.744 21.5576 108.512 21.4756 108.348 21.3115C108.188 21.1429 108.108 20.9333 108.108 20.6826ZM113.229 22.6035L113.276 23.458C113.823 22.7972 114.541 22.4668 115.43 22.4668C116.97 22.4668 117.754 23.3486 117.781 25.1123V30H116.12V25.208C116.12 24.7386 116.018 24.3923 115.812 24.1689C115.612 23.9411 115.282 23.8271 114.821 23.8271C114.151 23.8271 113.652 24.1302 113.324 24.7363V30H111.663V22.6035H113.229ZM129.464 27.71L130.64 22.6035H132.26L130.243 30H128.876L127.29 24.9209L125.731 30H124.364L122.341 22.6035H123.961L125.157 27.6553L126.675 22.6035H127.926L129.464 27.71ZM135.138 30H133.477V22.6035H135.138V30ZM133.374 20.6826C133.374 20.4274 133.454 20.2155 133.613 20.0469C133.777 19.8783 134.01 19.7939 134.311 19.7939C134.611 19.7939 134.844 19.8783 135.008 20.0469C135.172 20.2155 135.254 20.4274 135.254 20.6826C135.254 20.9333 135.172 21.1429 135.008 21.3115C134.844 21.4756 134.611 21.5576 134.311 21.5576C134.01 21.5576 133.777 21.4756 133.613 21.3115C133.454 21.1429 133.374 20.9333 133.374 20.6826ZM139.034 20.8057V22.6035H140.34V23.834H139.034V27.9629C139.034 28.2454 139.089 28.4505 139.198 28.5781C139.312 28.7012 139.513 28.7627 139.8 28.7627C139.991 28.7627 140.185 28.7399 140.381 28.6943V29.9795C140.003 30.0843 139.638 30.1367 139.287 30.1367C138.011 30.1367 137.373 29.4326 137.373 28.0244V23.834H136.156V22.6035H137.373V20.8057H139.034ZM143.252 23.4102C143.794 22.7812 144.48 22.4668 145.31 22.4668C146.886 22.4668 147.686 23.3669 147.709 25.167V30H146.048V25.2285C146.048 24.7181 145.936 24.3581 145.713 24.1484C145.494 23.9342 145.171 23.8271 144.742 23.8271C144.077 23.8271 143.58 24.1234 143.252 24.7158V30H141.591V19.5H143.252V23.4102ZM160.67 28.708C160.31 29.1774 159.811 29.5329 159.173 29.7744C158.535 30.016 157.81 30.1367 156.999 30.1367C156.165 30.1367 155.427 29.9476 154.784 29.5693C154.142 29.1911 153.645 28.651 153.294 27.9492C152.948 27.2428 152.768 26.4202 152.754 25.4814V24.7021C152.754 23.1982 153.114 22.0247 153.834 21.1816C154.554 20.334 155.559 19.9102 156.849 19.9102C157.956 19.9102 158.836 20.1836 159.487 20.7305C160.139 21.2773 160.531 22.0658 160.663 23.0957H158.968C158.776 21.8971 158.081 21.2979 156.883 21.2979C156.108 21.2979 155.518 21.5781 155.112 22.1387C154.711 22.6947 154.504 23.5127 154.49 24.5928V25.3584C154.49 26.4339 154.716 27.2702 155.167 27.8672C155.623 28.4596 156.254 28.7559 157.061 28.7559C157.945 28.7559 158.574 28.5553 158.947 28.1543V26.2061H156.896V24.8936H160.67V28.708ZM162.099 26.2334C162.099 25.5088 162.242 24.8571 162.529 24.2783C162.816 23.695 163.22 23.2484 163.739 22.9385C164.259 22.624 164.856 22.4668 165.53 22.4668C166.528 22.4668 167.337 22.7881 167.957 23.4307C168.581 24.0732 168.919 24.9255 168.969 25.9873L168.976 26.377C168.976 27.1061 168.834 27.7578 168.552 28.332C168.274 28.9062 167.873 29.3506 167.349 29.665C166.829 29.9795 166.228 30.1367 165.544 30.1367C164.5 30.1367 163.664 29.7904 163.035 29.0977C162.411 28.4004 162.099 27.473 162.099 26.3154V26.2334ZM163.76 26.377C163.76 27.138 163.917 27.735 164.231 28.168C164.546 28.5964 164.983 28.8105 165.544 28.8105C166.104 28.8105 166.54 28.5918 166.85 28.1543C167.164 27.7168 167.321 27.0765 167.321 26.2334C167.321 25.486 167.16 24.8936 166.836 24.4561C166.517 24.0186 166.082 23.7998 165.53 23.7998C164.988 23.7998 164.557 24.0163 164.238 24.4492C163.919 24.8776 163.76 25.5202 163.76 26.377ZM170.069 26.2334C170.069 25.5088 170.213 24.8571 170.5 24.2783C170.787 23.695 171.19 23.2484 171.71 22.9385C172.229 22.624 172.826 22.4668 173.501 22.4668C174.499 22.4668 175.308 22.7881 175.928 23.4307C176.552 24.0732 176.889 24.9255 176.939 25.9873L176.946 26.377C176.946 27.1061 176.805 27.7578 176.522 28.332C176.244 28.9062 175.843 29.3506 175.319 29.665C174.8 29.9795 174.198 30.1367 173.515 30.1367C172.471 30.1367 171.635 29.7904 171.006 29.0977C170.382 28.4004 170.069 27.473 170.069 26.3154V26.2334ZM171.73 26.377C171.73 27.138 171.888 27.735 172.202 28.168C172.517 28.5964 172.954 28.8105 173.515 28.8105C174.075 28.8105 174.51 28.5918 174.82 28.1543C175.135 27.7168 175.292 27.0765 175.292 26.2334C175.292 25.486 175.13 24.8936 174.807 24.4561C174.488 24.0186 174.052 23.7998 173.501 23.7998C172.959 23.7998 172.528 24.0163 172.209 24.4492C171.89 24.8776 171.73 25.5202 171.73 26.377ZM178.061 26.2471C178.061 25.0986 178.329 24.1826 178.867 23.499C179.41 22.8109 180.127 22.4668 181.021 22.4668C181.864 22.4668 182.527 22.7607 183.01 23.3486L183.085 22.6035H184.582V29.7744C184.582 30.7451 184.279 31.5107 183.673 32.0713C183.071 32.6318 182.258 32.9121 181.232 32.9121C180.69 32.9121 180.159 32.7982 179.64 32.5703C179.125 32.347 178.733 32.0531 178.464 31.6885L179.25 30.6904C179.76 31.2965 180.389 31.5996 181.137 31.5996C181.688 31.5996 182.123 31.4492 182.442 31.1484C182.761 30.8522 182.921 30.4147 182.921 29.8359V29.3369C182.442 29.8701 181.804 30.1367 181.007 30.1367C180.141 30.1367 179.432 29.7926 178.881 29.1045C178.334 28.4163 178.061 27.4639 178.061 26.2471ZM179.715 26.3906C179.715 27.1335 179.865 27.7191 180.166 28.1475C180.471 28.5713 180.893 28.7832 181.431 28.7832C182.101 28.7832 182.597 28.4961 182.921 27.9219V24.668C182.606 24.1074 182.114 23.8271 181.444 23.8271C180.897 23.8271 180.471 24.0436 180.166 24.4766C179.865 24.9095 179.715 25.5475 179.715 26.3906ZM188.062 30H186.4V19.5H188.062V30ZM193.134 30.1367C192.081 30.1367 191.227 29.8063 190.57 29.1455C189.919 28.4801 189.593 27.596 189.593 26.4932V26.2881C189.593 25.5498 189.734 24.8913 190.017 24.3125C190.304 23.7292 190.705 23.2757 191.22 22.9521C191.735 22.6286 192.309 22.4668 192.942 22.4668C193.95 22.4668 194.727 22.7881 195.273 23.4307C195.825 24.0732 196.101 24.9824 196.101 26.1582V26.8281H191.268C191.318 27.4388 191.521 27.9219 191.876 28.2773C192.236 28.6328 192.687 28.8105 193.229 28.8105C193.991 28.8105 194.61 28.5029 195.089 27.8877L195.984 28.7422C195.688 29.1842 195.292 29.5283 194.795 29.7744C194.303 30.016 193.749 30.1367 193.134 30.1367ZM192.936 23.7998C192.48 23.7998 192.111 23.9593 191.828 24.2783C191.55 24.5973 191.372 25.0417 191.295 25.6113H194.46V25.4883C194.424 24.9323 194.275 24.513 194.016 24.2305C193.756 23.9434 193.396 23.7998 192.936 23.7998Z" fill="#C4C4C4"/>
<path d="M51.0001 17.6213C52.953 17.6213 54.2704 18.4649 55.0215 19.1698L57.9566 16.304C56.1539 14.6284 53.8081 13.6 51.0001 13.6C46.9326 13.6 43.4197 15.9342 41.7095 19.3315L45.0721 21.9431C45.9157 19.4355 48.2499 17.6213 51.0001 17.6213Z" fill="#EA4335"/>
<path d="M60.984 24.2311C60.984 23.376 60.9147 22.752 60.7644 22.1049H51V25.9644H56.7316C56.616 26.9235 55.992 28.368 54.6053 29.3386L57.8871 31.8809C59.8516 30.0666 60.984 27.3973 60.984 24.2311Z" fill="#4285F4"/>
<path d="M45.0837 26.0569C44.8641 25.4098 44.737 24.7164 44.737 24C44.737 23.2835 44.8641 22.5902 45.0721 21.9431L41.7094 19.3315C41.0045 20.7413 40.6001 22.3244 40.6001 24C40.6001 25.6755 41.0045 27.2587 41.7094 28.6684L45.0837 26.0569Z" fill="#FBBC05"/>
<path d="M51.0003 34.4C53.8083 34.4 56.1656 33.4756 57.8874 31.8809L54.6056 29.3387C53.7274 29.9511 52.5487 30.3787 51.0003 30.3787C48.2501 30.3787 45.9159 28.5644 45.0839 26.0569L41.7212 28.6684C43.4314 32.0658 46.9327 34.4 51.0003 34.4Z" fill="#34A853"/>
</svg>
