<svg width="32" height="32" viewBox="0 0 32 32" fill="none" xmlns="http://www.w3.org/2000/svg">
<path fill-rule="evenodd" clip-rule="evenodd" d="M10.6667 30.6667C12.1394 30.6667 13.3333 29.4728 13.3333 28C13.3333 26.5272 12.1394 25.3333 10.6667 25.3333C9.19391 25.3333 8 26.5272 8 28C8 29.4728 9.19391 30.6667 10.6667 30.6667Z" stroke="white" stroke-width="2" stroke-linecap="round" stroke-linejoin="round"/>
<path fill-rule="evenodd" clip-rule="evenodd" d="M26.6667 30.6667C28.1394 30.6667 29.3333 29.4728 29.3333 28C29.3333 26.5272 28.1394 25.3333 26.6667 25.3333C25.1939 25.3333 24 26.5272 24 28C24 29.4728 25.1939 30.6667 26.6667 30.6667Z" stroke="white" stroke-width="2" stroke-linecap="round" stroke-linejoin="round"/>
<path d="M7.56016 8H30.6668L28.4268 19.1867C28.1752 20.4536 27.0516 21.3581 25.7602 21.3333H11.6668C10.3195 21.3448 9.17528 20.3493 9.00016 19.0133L6.9735 3.65334C6.79966 2.32746 5.67071 1.33536 4.3335 1.33334H1.3335" stroke="white" stroke-width="2" stroke-linecap="round" stroke-linejoin="round"/>
</svg>
